# Blender v2.77 (sub 0) OBJ File: ''
# www.blender.org
mtllib board_and_bubbles.mtl
o polySurface2
v 7.188257 5.348254 7.217295
v 7.131723 5.348254 6.860349
v 7.113360 5.482718 6.866315
v 6.967653 5.348254 6.538344
v 6.952032 5.482718 6.549693
v 6.712108 5.348254 6.282800
v 6.700760 5.482718 6.298421
v 6.390104 5.348254 6.118730
v 6.384137 5.482718 6.137094
v 6.033158 5.348254 6.062196
v 6.033158 5.482718 6.081504
v 5.676213 5.348254 6.118730
v 5.682179 5.482718 6.137094
v 5.354208 5.348254 6.282800
v 5.365557 5.482718 6.298421
v 5.098664 5.348254 6.538344
v 5.114284 5.482718 6.549693
v 4.934593 5.348254 6.860349
v 4.952957 5.482718 6.866315
v 4.878058 5.348254 7.217295
v 4.897367 5.482718 7.217295
v 4.934593 5.348254 7.574241
v 4.952957 5.482717 7.568274
v 5.098664 5.348254 7.896244
v 5.114284 5.482717 7.884896
v 5.354208 5.348254 8.151789
v 5.365557 5.482717 8.136168
v 5.676213 5.348254 8.315860
v 5.682179 5.482717 8.297496
v 6.033158 5.348254 8.372395
v 6.033158 5.482717 8.353086
v 6.390104 5.348254 8.315860
v 6.384137 5.482717 8.297496
v 6.712108 5.348254 8.151789
v 6.700760 5.482717 8.136168
v 6.967653 5.348254 7.896244
v 6.952032 5.482717 7.884896
v 7.131723 5.348254 7.574241
v 7.113360 5.482717 7.568274
v 7.168950 5.482718 7.217295
v 7.188257 5.201488 7.217295
v 7.131723 5.201488 6.860349
v 6.967653 5.201488 6.538344
v 6.712108 5.201488 6.282800
v 6.390104 5.201488 6.118730
v 6.033158 5.201488 6.062196
v 5.676213 5.201488 6.118730
v 5.354208 5.201488 6.282800
v 5.098664 5.201488 6.538344
v 4.934593 5.201488 6.860349
v 4.878058 5.201488 7.217295
v 4.934593 5.201488 7.574241
v 5.098664 5.201488 7.896244
v 5.354208 5.201488 8.151789
v 5.676213 5.201488 8.315860
v 6.033158 5.201488 8.372395
v 6.390104 5.201488 8.315860
v 6.712108 5.201488 8.151789
v 6.967653 5.201488 7.896244
v 7.131723 5.201488 7.574241
v 7.170932 5.053031 7.217295
v 7.115245 5.053031 6.865703
v 6.953635 5.053031 6.548528
v 6.701925 5.053031 6.296818
v 6.384750 5.053031 6.135209
v 6.033158 5.053031 6.079522
v 5.681567 5.053031 6.135209
v 5.364392 5.053031 6.296818
v 5.112682 5.053031 6.548528
v 4.951073 5.053031 6.865703
v 4.895385 5.053031 7.217295
v 4.951073 5.053030 7.568887
v 5.112682 5.053030 7.886062
v 5.364392 5.053030 8.137773
v 5.681567 5.053030 8.299381
v 6.033158 5.053030 8.355066
v 6.384750 5.053030 8.299381
v 6.701925 5.053030 8.137773
v 6.953635 5.053030 7.886062
v 7.115245 5.053030 7.568887
v 7.054491 5.291382 6.885444
v 7.107051 5.291382 7.217295
v 7.069136 5.510213 7.217295
v 6.901956 5.291382 6.586076
v 7.018433 5.510213 6.897160
v 6.664377 5.291382 6.348497
v 6.871282 5.510213 6.608362
v 6.365009 5.291382 6.195963
v 6.642091 5.510213 6.379171
v 6.033158 5.291382 6.143403
v 6.353293 5.510213 6.232021
v 5.701308 5.291382 6.195963
v 6.033158 5.510213 6.181317
v 5.401940 5.291382 6.348497
v 5.713024 5.510213 6.232021
v 5.164362 5.291382 6.586076
v 5.424226 5.510213 6.379171
v 5.011826 5.291382 6.885444
v 5.195035 5.510213 6.608362
v 4.959266 5.291382 7.217295
v 5.047884 5.510213 6.897160
v 5.011826 5.291380 7.549146
v 4.997181 5.510213 7.217295
v 5.164362 5.291380 7.848513
v 5.047884 5.510212 7.537429
v 5.401940 5.291380 8.086092
v 5.195035 5.510212 7.826228
v 5.701308 5.291380 8.238626
v 5.424226 5.510212 8.055419
v 6.033158 5.291380 8.291186
v 5.713024 5.510212 8.202569
v 6.365009 5.291380 8.238626
v 6.033158 5.510212 8.253274
v 6.664377 5.291380 8.086092
v 6.353293 5.510212 8.202569
v 6.901956 5.291380 7.848513
v 6.642091 5.510212 8.055419
v 7.054491 5.291380 7.549146
v 6.871282 5.510212 7.826228
v 7.018433 5.510212 7.537429
v 7.054491 5.025024 6.885444
v 7.107051 5.025024 7.217295
v 6.901956 5.025024 6.586076
v 6.664377 5.025024 6.348497
v 6.365009 5.025024 6.195963
v 6.033158 5.025024 6.143403
v 5.701308 5.025024 6.195963
v 5.401940 5.025024 6.348497
v 5.164362 5.025024 6.586076
v 5.011826 5.025024 6.885444
v 4.959266 5.025024 7.217295
v 5.011826 5.025023 7.549146
v 5.164362 5.025023 7.848513
v 5.401940 5.025023 8.086092
v 5.701308 5.025023 8.238626
v 6.033158 5.025023 8.291186
v 6.365009 5.025023 8.238626
v 6.664377 5.025023 8.086092
v 6.901956 5.025023 7.848513
v 7.054491 5.025023 7.549146
v 9.936242 3.691204 -14.094656
v 9.936242 10.035545 -14.094653
v -2.822437 10.035545 -14.094653
v -2.822437 3.691204 -14.094656
v 9.936242 3.691204 -15.000873
v 9.936242 10.035549 -15.000870
v -2.822437 3.691204 -15.000873
v -2.822437 10.035549 -15.000870
vt 0.0807 0.5505
vt 0.0799 0.4818
vt 0.1087 0.4819
vt 0.0800 0.4055
vt 0.1088 0.4056
vt 0.0801 0.3292
vt 0.1089 0.3293
vt 0.0801 0.2530
vt 0.1089 0.2530
vt 0.0802 0.1766
vt 0.1090 0.1766
vt 0.0803 0.1002
vt 0.1091 0.1004
vt 0.0805 0.0236
vt 0.1095 0.0245
vt 0.0860 0.9799
vt 0.0859 0.8971
vt 0.1170 0.8971
vt 0.0859 0.8136
vt 0.1174 0.8138
vt 0.0860 0.7299
vt 0.1175 0.7299
vt 0.0862 0.6460
vt 0.1180 0.6458
vt 0.0861 0.5685
vt 0.1172 0.5698
vt 0.2180 0.9837
vt 0.2159 0.9036
vt 0.2461 0.9029
vt 0.2142 0.8237
vt 0.2444 0.8231
vt 0.2126 0.7438
vt 0.2427 0.7432
vt 0.2110 0.6640
vt 0.2412 0.6634
vt 0.2096 0.5841
vt 0.2398 0.5836
vt 0.2084 0.5042
vt 0.2386 0.5038
vt 0.2072 0.4243
vt 0.2374 0.4240
vt 0.2063 0.3441
vt 0.2366 0.3446
vt 0.0495 0.5504
vt 0.0488 0.4818
vt 0.0489 0.4055
vt 0.0489 0.3292
vt 0.0489 0.2530
vt 0.0490 0.1766
vt 0.0491 0.1002
vt 0.0492 0.0236
vt 0.0522 0.9800
vt 0.0522 0.8973
vt 0.0517 0.8137
vt 0.0518 0.7299
vt 0.0519 0.6461
vt 0.0518 0.5686
vt 0.1852 0.9845
vt 0.1834 0.9044
vt 0.1816 0.8244
vt 0.1799 0.7445
vt 0.1784 0.6646
vt 0.1770 0.5846
vt 0.1758 0.5047
vt 0.1747 0.4247
vt 0.1735 0.3446
vt 0.0176 0.5517
vt 0.0170 0.4812
vt 0.0171 0.4055
vt 0.0172 0.3292
vt 0.0172 0.2529
vt 0.0173 0.1765
vt 0.0174 0.1002
vt 0.0174 0.0243
vt 0.0177 0.9792
vt 0.0180 0.8976
vt 0.0169 0.8139
vt 0.0170 0.7299
vt 0.0170 0.6463
vt 0.0161 0.5710
vt 0.1518 0.9845
vt 0.1502 0.9050
vt 0.1484 0.8251
vt 0.1467 0.7452
vt 0.1452 0.6652
vt 0.1438 0.5852
vt 0.1426 0.5052
vt 0.1415 0.4253
vt 0.1403 0.3458
vt 0.5124 0.0782
vt 0.4473 0.0770
vt 0.4484 0.0327
vt 0.5775 0.0791
vt 0.5131 0.0338
vt 0.6427 0.0799
vt 0.5780 0.0346
vt 0.7079 0.0806
vt 0.6432 0.0353
vt 0.7732 0.0816
vt 0.7085 0.0360
vt 0.8384 0.0827
vt 0.7738 0.0369
vt 0.9037 0.0838
vt 0.8389 0.0378
vt 0.9627 0.0842
vt 0.9044 0.0388
vt 0.3259 0.2077
vt 0.2646 0.2053
vt 0.2666 0.1608
vt 0.3909 0.2090
vt 0.3254 0.1627
vt 0.4562 0.2105
vt 0.3916 0.1642
vt 0.5217 0.2116
vt 0.4570 0.1657
vt 0.5874 0.2123
vt 0.5221 0.1668
vt 0.6535 0.2124
vt 0.5876 0.1676
vt 0.7196 0.2116
vt 0.6532 0.1679
vt 0.7858 0.2096
vt 0.7186 0.1671
vt 0.8523 0.2062
vt 0.7838 0.1653
vt 0.3174 0.0717
vt 0.2523 0.0669
vt 0.2569 0.0236
vt 0.3823 0.0749
vt 0.3203 0.0282
vt 0.3841 0.0313
vt 0.5114 0.1315
vt 0.4458 0.1296
vt 0.5768 0.1326
vt 0.6420 0.1334
vt 0.7072 0.1341
vt 0.7723 0.1351
vt 0.8375 0.1364
vt 0.9030 0.1378
vt 0.9621 0.1386
vt 0.3246 0.2619
vt 0.2602 0.2590
vt 0.3899 0.2630
vt 0.4553 0.2641
vt 0.5212 0.2653
vt 0.5874 0.2658
vt 0.6540 0.2657
vt 0.7209 0.2648
vt 0.7879 0.2628
vt 0.8550 0.2596
vt 0.3142 0.1238
vt 0.2485 0.1191
vt 0.3800 0.1272
vt 0.1086 0.5505
vt 0.1171 0.9791
vt 0.2481 0.9822
vt 0.9632 0.0396
vt 0.8483 0.1621
vt 0.2875 0.8285
vt 0.2791 0.7427
vt 0.3091 0.8157
vt 0.2547 0.7489
vt 0.2700 0.6641
vt 0.2448 0.6636
vt 0.2825 0.5861
vt 0.3419 0.8956
vt 0.3588 0.8769
vt 0.2584 0.5786
vt 0.3165 0.5151
vt 0.2958 0.5009
vt 0.3700 0.4573
vt 0.3543 0.4377
vt 0.4382 0.4181
vt 0.2442 0.3377
vt 0.2144 0.2740
vt 0.2573 0.3218
vt 0.1972 0.2852
vt 0.1880 0.2155
vt 0.1682 0.2210
vt 0.1806 0.1518
vt 0.1601 0.1509
vt 0.1930 0.0888
vt 0.1737 0.0818
vt 0.2237 0.0324
vt 0.2716 0.3554
vt 0.3362 0.3277
vt 0.2870 0.3689
vt 0.3256 0.3101
vt 0.3956 0.3033
vt 0.9446 0.1962
vt 0.9307 0.2523
vt 0.9102 0.2506
vt 0.9150 0.3209
vt 0.9351 0.3164
vt 0.9408 0.3865
vt 0.9586 0.3762
vt 0.5298 0.2939
vt 0.5772 0.3458
vt 0.5220 0.3129
vt 0.4596 0.2982
vt 0.4611 0.2778
vt 0.3908 0.2833
vt 0.8955 0.3863
vt 0.8456 0.3448
vt 0.8526 0.3333
vt 0.5929 0.4120
vt 0.5428 0.4532
vt 0.5329 0.4442
vt 0.6528 0.3874
vt 0.5859 0.4004
vt 0.7173 0.3820
vt 0.6496 0.3743
vt 0.7859 0.3198
vt 0.7891 0.3067
vt 0.7214 0.3138
vt 0.7206 0.3004
vt 0.6580 0.3273
vt 0.6533 0.3147
vt 0.6012 0.3586
vt 0.5931 0.3479
vt 0.7591 0.4826
vt 0.6980 0.4608
vt 0.7006 0.4476
vt 0.6333 0.4580
vt 0.6318 0.4446
vt 0.5707 0.4747
vt 0.5653 0.4624
vt 0.5160 0.5095
vt 0.5072 0.4993
vt 0.4739 0.5588
vt 0.4625 0.5516
vt 0.9562 0.5714
vt 0.9063 0.5299
vt 0.9133 0.5184
vt 0.8465 0.5052
vt 0.8496 0.4921
vt 0.7819 0.4999
vt 0.7810 0.4865
vt 0.7188 0.5145
vt 0.7139 0.5019
vt 0.6627 0.5469
vt 0.6543 0.5363
vt 0.8365 0.4290
vt 0.7805 0.3964
vt 0.7854 0.3839
vt 0.7183 0.3686
vt 0.5902 0.3300
vt 0.9255 0.1889
vt 0.4290 0.3946
vt 0.2074 0.0199
vt 0.9055 0.3773
vt 0.7654 0.4708
vt 0.9662 0.5624
vt 0.8449 0.4185
vt 0.9708 0.6505
vt 0.9708 0.9468
vt 0.3750 0.9468
vt 0.3750 0.6505
vt 0.5130 0.5743
vt 0.7479 0.5743
vt 0.7479 0.6079
vt 0.5130 0.6079
vt 0.9571 0.1558
vt 0.8971 0.1558
vt 0.8971 0.0353
vt 0.9571 0.0353
vt 0.4604 0.5793
vt 0.9234 0.5797
vt 0.9234 0.6072
vt 0.4526 0.6072
vt 0.4374 0.6080
vt 0.4374 0.5725
vt 0.9375 0.5725
vt 0.9375 0.6080
vt 0.4611 0.6105
vt 0.4611 0.5769
vt 0.9334 0.5769
vt 0.9334 0.6105
vn 0.9779 0.1404 -0.1549
vn 0.8822 0.1404 -0.4495
vn 0.7001 0.1404 -0.7001
vn 0.4495 0.1404 -0.8822
vn 0.1549 0.1404 -0.9779
vn -0.1549 0.1404 -0.9779
vn -0.4495 0.1404 -0.8822
vn -0.7001 0.1404 -0.7001
vn -0.8822 0.1404 -0.4495
vn -0.9779 0.1404 -0.1549
vn -0.9779 0.1404 0.1549
vn -0.8822 0.1404 0.4495
vn -0.7001 0.1404 0.7001
vn -0.4495 0.1404 0.8822
vn -0.1549 0.1404 0.9779
vn 0.1549 0.1404 0.9779
vn 0.4495 0.1404 0.8822
vn 0.7001 0.1404 0.7001
vn 0.8822 0.1404 0.4495
vn 0.9779 0.1404 0.1549
vn 0.9877 0.0000 -0.1564
vn 0.8910 0.0000 -0.4540
vn 0.7071 0.0000 -0.7071
vn 0.4540 0.0000 -0.8910
vn 0.1564 0.0000 -0.9877
vn -0.1564 0.0000 -0.9877
vn -0.4540 0.0000 -0.8910
vn -0.7071 0.0000 -0.7071
vn -0.8910 0.0000 -0.4540
vn -0.9877 0.0000 -0.1564
vn -0.9877 0.0000 0.1564
vn -0.8910 0.0000 0.4540
vn -0.7071 0.0000 0.7071
vn -0.4540 0.0000 0.8910
vn -0.1564 0.0000 0.9877
vn 0.1564 0.0000 0.9877
vn 0.4540 0.0000 0.8910
vn 0.7071 0.0000 0.7071
vn 0.8910 0.0000 0.4540
vn 0.9877 0.0000 0.1564
vn 0.9812 -0.1145 -0.1554
vn 0.8851 -0.1145 -0.4510
vn 0.7025 -0.1145 -0.7025
vn 0.4510 -0.1145 -0.8851
vn 0.1554 -0.1145 -0.9812
vn -0.1554 -0.1145 -0.9812
vn -0.4510 -0.1145 -0.8851
vn -0.7025 -0.1145 -0.7025
vn -0.8851 -0.1145 -0.4510
vn -0.9812 -0.1145 -0.1554
vn -0.9812 -0.1145 0.1554
vn -0.8851 -0.1145 0.4510
vn -0.7025 -0.1145 0.7025
vn -0.4510 -0.1145 0.8851
vn -0.1554 -0.1145 0.9812
vn 0.1554 -0.1145 0.9812
vn 0.4510 -0.1145 0.8851
vn 0.7025 -0.1145 0.7025
vn 0.8851 -0.1145 0.4510
vn 0.9812 -0.1145 0.1554
vn -0.9735 -0.1687 0.1542
vn -0.8782 -0.1687 0.4475
vn -0.6970 -0.1687 0.6970
vn -0.4475 -0.1687 0.8782
vn -0.1542 -0.1687 0.9735
vn 0.1542 -0.1687 0.9735
vn 0.4475 -0.1687 0.8782
vn 0.6970 -0.1687 0.6970
vn 0.8782 -0.1687 0.4475
vn 0.9735 -0.1687 0.1542
vn 0.9735 -0.1687 -0.1542
vn 0.8782 -0.1687 -0.4475
vn 0.6970 -0.1687 -0.6970
vn 0.4475 -0.1687 -0.8782
vn 0.1542 -0.1687 -0.9735
vn -0.1542 -0.1687 -0.9735
vn -0.4475 -0.1687 -0.8782
vn -0.6970 -0.1687 -0.6970
vn -0.8782 -0.1687 -0.4475
vn -0.9735 -0.1687 -0.1542
vn -0.0420 0.9632 0.2653
vn 0.0420 0.9632 0.2653
vn 0.1220 0.9632 0.2394
vn -0.1220 0.9632 0.2394
vn 0.1900 0.9632 0.1900
vn 0.2394 0.9632 0.1220
vn 0.2653 0.9632 0.0420
vn 0.2653 0.9632 -0.0420
vn 0.2394 0.9632 -0.1220
vn 0.1900 0.9632 -0.1900
vn 0.1220 0.9632 -0.2394
vn 0.0420 0.9632 -0.2653
vn -0.0420 0.9632 -0.2653
vn -0.1220 0.9632 -0.2394
vn -0.1900 0.9632 0.1900
vn -0.2394 0.9632 0.1220
vn -0.2653 0.9632 0.0420
vn -0.2653 0.9632 -0.0420
vn -0.2394 0.9632 -0.1220
vn -0.1900 0.9632 -0.1900
vn -0.0635 -0.9140 -0.4007
vn 0.0635 -0.9140 -0.4007
vn 0.1842 -0.9140 -0.3615
vn 0.2869 -0.9140 -0.2869
vn -0.1842 -0.9140 -0.3615
vn -0.2869 -0.9140 -0.2869
vn -0.3615 -0.9140 -0.1842
vn -0.4007 -0.9140 -0.0635
vn -0.4007 -0.9140 0.0635
vn -0.3615 -0.9140 0.1842
vn -0.2869 -0.9140 0.2869
vn -0.1842 -0.9140 0.3615
vn -0.0635 -0.9140 0.4007
vn 0.0635 -0.9140 0.4007
vn 0.1842 -0.9140 0.3615
vn 0.2869 -0.9140 0.2869
vn 0.3615 -0.9140 0.1842
vn 0.4007 -0.9140 0.0635
vn 0.4007 -0.9140 -0.0635
vn 0.3615 -0.9140 -0.1842
vn -0.0420 0.9632 0.2654
vn 0.0000 -0.0000 1.0000
vn 1.0000 -0.0000 0.0000
vn 0.0000 0.0000 -1.0000
vn -1.0000 0.0000 0.0000
vn 0.0000 1.0000 0.0000
vn 0.0000 -1.0000 0.0000
usemtl initialShadingGroup
s 1
f 1/1/1 2/2/1 3/3/1
f 2/2/2 4/4/2 5/5/2
f 4/4/3 6/6/3 7/7/3
f 6/6/4 8/8/4 9/9/4
f 8/8/5 10/10/5 11/11/5
f 10/10/6 12/12/6 13/13/6
f 12/12/7 14/14/7 15/15/7
f 14/16/8 16/17/8 17/18/8
f 16/17/9 18/19/9 19/20/9
f 18/19/10 20/21/10 21/22/10
f 20/21/11 22/23/11 23/24/11
f 22/23/12 24/25/12 25/26/12
f 24/27/13 26/28/13 27/29/13
f 26/28/14 28/30/14 29/31/14
f 28/30/15 30/32/15 31/33/15
f 30/32/16 32/34/16 33/35/16
f 32/34/17 34/36/17 35/37/17
f 34/36/18 36/38/18 37/39/18
f 36/38/19 38/40/19 39/41/19
f 38/40/20 1/42/20 40/43/20
f 41/44/21 42/45/21 2/2/21
f 42/45/22 43/46/22 4/4/22
f 43/46/23 44/47/23 6/6/23
f 44/47/24 45/48/24 8/8/24
f 45/48/25 46/49/25 10/10/25
f 46/49/26 47/50/26 12/12/26
f 47/50/27 48/51/27 14/14/27
f 48/52/28 49/53/28 16/17/28
f 49/53/29 50/54/29 18/19/29
f 50/54/30 51/55/30 20/21/30
f 51/55/31 52/56/31 22/23/31
f 52/56/32 53/57/32 24/25/32
f 53/58/33 54/59/33 26/28/33
f 54/59/34 55/60/34 28/30/34
f 55/60/35 56/61/35 30/32/35
f 56/61/36 57/62/36 32/34/36
f 57/62/37 58/63/37 34/36/37
f 58/63/38 59/64/38 36/38/38
f 59/64/39 60/65/39 38/40/39
f 60/65/40 41/66/40 1/42/40
f 61/67/41 62/68/41 42/45/41
f 62/68/42 63/69/42 43/46/42
f 63/69/43 64/70/43 44/47/43
f 64/70/44 65/71/44 45/48/44
f 65/71/45 66/72/45 46/49/45
f 66/72/46 67/73/46 47/50/46
f 67/73/47 68/74/47 48/51/47
f 68/75/48 69/76/48 49/53/48
f 69/76/49 70/77/49 50/54/49
f 70/77/50 71/78/50 51/55/50
f 71/78/51 72/79/51 52/56/51
f 72/79/52 73/80/52 53/57/52
f 73/81/53 74/82/53 54/59/53
f 74/82/54 75/83/54 55/60/54
f 75/83/55 76/84/55 56/61/55
f 76/84/56 77/85/56 57/62/56
f 77/85/57 78/86/57 58/63/57
f 78/86/58 79/87/58 59/64/58
f 79/87/59 80/88/59 60/65/59
f 80/88/60 61/89/60 41/66/60
f 81/90/61 82/91/61 83/92/61
f 84/93/62 81/90/62 85/94/62
f 86/95/63 84/93/63 87/96/63
f 88/97/64 86/95/64 89/98/64
f 90/99/65 88/97/65 91/100/65
f 92/101/66 90/99/66 93/102/66
f 94/103/67 92/101/67 95/104/67
f 96/105/68 94/103/68 97/106/68
f 98/107/69 96/108/69 99/109/69
f 100/110/70 98/107/70 101/111/70
f 102/112/71 100/110/71 103/113/71
f 104/114/72 102/112/72 105/115/72
f 106/116/73 104/114/73 107/117/73
f 108/118/74 106/116/74 109/119/74
f 110/120/75 108/118/75 111/121/75
f 112/122/76 110/120/76 113/123/76
f 114/124/77 112/122/77 115/125/77
f 116/126/78 114/127/78 117/128/78
f 118/129/79 116/126/79 119/130/79
f 82/91/80 118/129/80 120/131/80
f 121/132/31 122/133/31 82/91/31
f 123/134/32 121/132/32 81/90/32
f 124/135/33 123/134/33 84/93/33
f 125/136/34 124/135/34 86/95/34
f 126/137/35 125/136/35 88/97/35
f 127/138/36 126/137/36 90/99/36
f 128/139/37 127/138/37 92/101/37
f 129/140/38 128/139/38 94/103/38
f 130/141/39 129/142/39 96/108/39
f 131/143/40 130/141/40 98/107/40
f 132/144/21 131/143/21 100/110/21
f 133/145/22 132/144/22 102/112/22
f 134/146/23 133/145/23 104/114/23
f 135/147/24 134/146/24 106/116/24
f 136/148/25 135/147/25 108/118/25
f 137/149/26 136/148/26 110/120/26
f 138/150/27 137/149/27 112/122/27
f 139/151/28 138/152/28 114/127/28
f 140/153/29 139/151/29 116/126/29
f 122/133/30 140/153/30 118/129/30
f 40/154/1 1/1/1 3/3/1
f 3/3/2 2/2/2 5/5/2
f 5/5/3 4/4/3 7/7/3
f 7/7/4 6/6/4 9/9/4
f 9/9/5 8/8/5 11/11/5
f 11/11/6 10/10/6 13/13/6
f 13/13/7 12/12/7 15/15/7
f 15/155/8 14/16/8 17/18/8
f 17/18/9 16/17/9 19/20/9
f 19/20/10 18/19/10 21/22/10
f 21/22/11 20/21/11 23/24/11
f 23/24/12 22/23/12 25/26/12
f 25/156/13 24/27/13 27/29/13
f 27/29/14 26/28/14 29/31/14
f 29/31/15 28/30/15 31/33/15
f 31/33/16 30/32/16 33/35/16
f 33/35/17 32/34/17 35/37/17
f 35/37/18 34/36/18 37/39/18
f 37/39/19 36/38/19 39/41/19
f 39/41/20 38/40/20 40/43/20
f 1/1/21 41/44/21 2/2/21
f 2/2/22 42/45/22 4/4/22
f 4/4/23 43/46/23 6/6/23
f 6/6/24 44/47/24 8/8/24
f 8/8/25 45/48/25 10/10/25
f 10/10/26 46/49/26 12/12/26
f 12/12/27 47/50/27 14/14/27
f 14/16/28 48/52/28 16/17/28
f 16/17/29 49/53/29 18/19/29
f 18/19/30 50/54/30 20/21/30
f 20/21/31 51/55/31 22/23/31
f 22/23/32 52/56/32 24/25/32
f 24/27/33 53/58/33 26/28/33
f 26/28/34 54/59/34 28/30/34
f 28/30/35 55/60/35 30/32/35
f 30/32/36 56/61/36 32/34/36
f 32/34/37 57/62/37 34/36/37
f 34/36/38 58/63/38 36/38/38
f 36/38/39 59/64/39 38/40/39
f 38/40/40 60/65/40 1/42/40
f 41/44/41 61/67/41 42/45/41
f 42/45/42 62/68/42 43/46/42
f 43/46/43 63/69/43 44/47/43
f 44/47/44 64/70/44 45/48/44
f 45/48/45 65/71/45 46/49/45
f 46/49/46 66/72/46 47/50/46
f 47/50/47 67/73/47 48/51/47
f 48/52/48 68/75/48 49/53/48
f 49/53/49 69/76/49 50/54/49
f 50/54/50 70/77/50 51/55/50
f 51/55/51 71/78/51 52/56/51
f 52/56/52 72/79/52 53/57/52
f 53/58/53 73/81/53 54/59/53
f 54/59/54 74/82/54 55/60/54
f 55/60/55 75/83/55 56/61/55
f 56/61/56 76/84/56 57/62/56
f 57/62/57 77/85/57 58/63/57
f 58/63/58 78/86/58 59/64/58
f 59/64/59 79/87/59 60/65/59
f 60/65/60 80/88/60 41/66/60
f 85/94/61 81/90/61 83/92/61
f 87/96/62 84/93/62 85/94/62
f 89/98/63 86/95/63 87/96/63
f 91/100/64 88/97/64 89/98/64
f 93/102/65 90/99/65 91/100/65
f 95/104/66 92/101/66 93/102/66
f 97/106/67 94/103/67 95/104/67
f 99/157/68 96/105/68 97/106/68
f 101/111/69 98/107/69 99/109/69
f 103/113/70 100/110/70 101/111/70
f 105/115/71 102/112/71 103/113/71
f 107/117/72 104/114/72 105/115/72
f 109/119/73 106/116/73 107/117/73
f 111/121/74 108/118/74 109/119/74
f 113/123/75 110/120/75 111/121/75
f 115/125/76 112/122/76 113/123/76
f 117/158/77 114/124/77 115/125/77
f 119/130/78 116/126/78 117/128/78
f 120/131/79 118/129/79 119/130/79
f 83/92/80 82/91/80 120/131/80
f 81/90/31 121/132/31 82/91/31
f 84/93/32 123/134/32 81/90/32
f 86/95/33 124/135/33 84/93/33
f 88/97/34 125/136/34 86/95/34
f 90/99/35 126/137/35 88/97/35
f 92/101/36 127/138/36 90/99/36
f 94/103/37 128/139/37 92/101/37
f 96/105/38 129/140/38 94/103/38
f 98/107/39 130/141/39 96/108/39
f 100/110/40 131/143/40 98/107/40
f 102/112/21 132/144/21 100/110/21
f 104/114/22 133/145/22 102/112/22
f 106/116/23 134/146/23 104/114/23
f 108/118/24 135/147/24 106/116/24
f 110/120/25 136/148/25 108/118/25
f 112/122/26 137/149/26 110/120/26
f 114/124/27 138/150/27 112/122/27
f 116/126/28 139/151/28 114/127/28
f 118/129/29 140/153/29 116/126/29
f 82/91/30 122/133/30 118/129/30
f 29/159/81 113/160/81 111/161/81
f 31/162/82 115/163/82 113/160/82
f 33/164/83 117/165/83 115/163/83
f 27/166/84 111/161/84 109/167/84
f 35/168/85 119/169/85 117/165/85
f 37/170/86 120/171/86 119/169/86
f 39/172/87 83/173/87 120/171/87
f 40/174/88 85/175/88 83/176/88
f 3/177/89 87/178/89 85/175/89
f 5/179/90 89/180/90 87/178/90
f 7/181/91 91/182/91 89/180/91
f 9/183/92 93/184/92 91/182/92
f 11/185/93 95/186/93 93/187/93
f 13/188/94 97/189/94 95/186/94
f 109/190/95 107/191/95 25/192/95
f 23/193/96 107/191/96 105/194/96
f 21/195/97 105/194/97 103/196/97
f 19/197/98 103/198/98 101/199/98
f 101/199/99 99/200/99 17/201/99
f 99/200/100 97/189/100 15/202/100
f 126/203/101 127/204/101 67/205/101
f 125/206/102 126/207/102 66/208/102
f 124/209/103 125/206/103 65/210/103
f 123/211/104 124/209/104 64/212/104
f 127/204/105 128/213/105 68/214/105
f 128/213/106 129/215/106 69/216/106
f 129/215/107 130/217/107 70/218/107
f 130/217/108 131/219/108 71/220/108
f 131/221/109 132/222/109 72/223/109
f 132/222/110 133/224/110 73/225/110
f 133/224/111 134/226/111 74/227/111
f 134/226/112 135/228/112 75/229/112
f 135/228/113 136/230/113 76/231/113
f 136/232/114 137/233/114 77/234/114
f 137/233/115 138/235/115 78/236/115
f 138/235/116 139/237/116 79/238/116
f 139/237/117 140/239/117 80/240/117
f 140/239/118 122/241/118 61/242/118
f 122/243/119 121/244/119 62/245/119
f 121/244/120 123/211/120 63/246/120
f 13/188/94 15/202/94 97/189/94
f 99/200/100 15/202/100 17/201/100
f 101/199/99 17/201/99 19/197/99
f 19/197/98 21/247/98 103/198/98
f 21/195/97 23/193/97 105/194/97
f 23/193/96 25/192/96 107/191/96
f 109/190/95 25/192/95 27/248/95
f 27/166/84 29/159/84 111/161/84
f 29/159/81 31/162/121 113/160/81
f 31/162/82 33/164/82 115/163/82
f 33/164/83 35/168/83 117/165/83
f 35/168/85 37/170/85 119/169/85
f 37/170/86 39/172/86 120/171/86
f 39/172/87 40/249/87 83/173/87
f 40/174/88 3/177/88 85/175/88
f 3/177/89 5/179/89 87/178/89
f 5/179/90 7/181/90 89/180/90
f 7/181/91 9/183/91 91/182/91
f 9/183/92 11/250/92 93/184/92
f 11/185/93 13/188/93 95/186/93
f 125/206/102 66/208/102 65/210/102
f 126/203/101 67/205/101 66/251/101
f 127/204/105 68/214/105 67/205/105
f 128/213/106 69/216/106 68/214/106
f 129/215/107 70/218/107 69/216/107
f 130/217/108 71/220/108 70/218/108
f 131/221/109 72/223/109 71/252/109
f 132/222/110 73/225/110 72/223/110
f 133/224/111 74/227/111 73/225/111
f 134/226/112 75/229/112 74/227/112
f 135/228/113 76/231/113 75/229/113
f 136/232/114 77/234/114 76/253/114
f 137/233/115 78/236/115 77/234/115
f 138/235/116 79/238/116 78/236/116
f 139/237/117 80/240/117 79/238/117
f 140/239/118 61/242/118 80/240/118
f 122/243/119 62/245/119 61/254/119
f 121/244/120 63/246/120 62/245/120
f 123/211/104 64/212/104 63/246/104
f 124/209/103 65/210/103 64/212/103
f 141/255/122 142/256/122 143/257/122 144/258/122
f 145/259/123 146/260/123 142/261/123 141/262/123
f 147/263/124 148/264/124 146/265/124 145/266/124
f 144/267/125 143/268/125 148/269/125 147/270/125
f 142/271/126 146/272/126 148/273/126 143/274/126
f 145/275/127 141/276/127 144/277/127 147/278/127
